<svg width="2052" height="828" viewBox="0 0 2052 828" fill="none" xmlns="http://www.w3.org/2000/svg">
<ellipse cx="212.457" cy="255.832" rx="124.713" ry="222.942" transform="rotate(27.05 212.457 255.832)" fill="#B93528"/>
<path d="M426.969 48.9826C427.153 33.786 427.245 26.1876 430.583 21.9268C433.249 18.5237 437.178 16.3441 441.476 15.8842C446.858 15.3084 453.353 19.253 466.343 27.1423L656.801 142.817C674.409 153.511 683.212 158.858 689.499 166.262C694.61 172.28 698.482 179.247 700.894 186.765C703.862 196.013 703.754 206.313 703.539 226.912L701.023 467.284C700.882 480.734 700.811 487.46 697.867 491.204C695.516 494.194 692.05 496.098 688.266 496.479C683.526 496.957 677.812 493.41 666.383 486.317L473.204 366.413C454.7 354.928 445.448 349.186 438.851 341.303C433.489 334.895 429.433 327.499 426.913 319.533C423.813 309.733 423.945 298.844 424.208 277.067L426.969 48.9826Z" fill="#4C8D39"/>
<path d="M147.267 600.392C135.336 592.837 129.37 589.06 127.453 584.218C125.919 580.344 125.957 576.025 127.558 572.179C129.559 567.371 135.59 563.698 147.652 556.354L339.511 439.525C358.936 427.697 368.649 421.782 379.038 419.704C387.473 418.017 396.173 418.164 404.547 420.134C414.86 422.56 424.368 428.798 443.384 441.274L629.075 563.102C639.374 569.858 644.523 573.236 646.133 577.491C647.422 580.895 647.334 584.666 645.888 588.007C644.082 592.181 638.781 595.316 628.179 601.586L435.123 715.759C414.872 727.735 404.747 733.723 393.949 735.84C385.178 737.559 376.144 737.422 367.43 735.437C356.7 732.994 346.761 726.701 326.883 714.115L147.267 600.392Z" fill="#4C8D39"/>
<path d="M859.477 690L771.25 457.484H769.812C770.292 462.396 770.711 468.385 771.07 475.453C771.43 482.521 771.729 490.247 771.969 498.633C772.208 506.898 772.328 515.344 772.328 523.969V690H743.938V427.297H789.219L872.414 645.797H873.672L958.125 427.297H1003.05V690H972.859V521.812C972.859 514.026 972.979 506.24 973.219 498.453C973.458 490.547 973.758 483.12 974.117 476.172C974.477 469.104 974.836 462.995 975.195 457.844H973.758L884.453 690H859.477ZM1239.7 690L1207.35 606.625H1102.05L1069.89 690H1038.98L1141.77 426.219H1169.26L1271.32 690H1239.7ZM1198.19 579.492L1167.46 496.656C1166.74 494.5 1165.54 490.966 1163.87 486.055C1162.31 481.143 1160.69 476.052 1159.02 470.781C1157.34 465.51 1155.96 461.258 1154.88 458.023C1153.68 462.935 1152.37 467.846 1150.93 472.758C1149.61 477.549 1148.29 482.042 1146.98 486.234C1145.66 490.307 1144.52 493.781 1143.56 496.656L1112.3 579.492H1198.19ZM1497.19 690H1461.07L1366.38 562.242L1338.34 587.398V690H1307.8V427.297H1338.34V558.289C1345.17 550.503 1352.18 542.776 1359.37 535.109C1366.55 527.323 1373.68 519.477 1380.75 511.57L1457.48 427.297H1493.23L1388.66 541.219L1497.19 690ZM1679.39 690H1533.12V427.297H1679.39V454.25H1563.67V539.242H1672.74V565.836H1563.67V663.047H1679.39V690ZM1808.59 427.297C1830.15 427.297 1847.94 429.992 1861.95 435.383C1876.09 440.654 1886.63 448.74 1893.58 459.641C1900.53 470.542 1904 484.438 1904 501.328C1904 515.224 1901.48 526.844 1896.45 536.188C1891.42 545.411 1884.83 552.898 1876.69 558.648C1868.54 564.398 1859.86 568.831 1850.63 571.945L1922.69 690H1887.11L1822.78 580.391H1768.16V690H1737.61V427.297H1808.59ZM1806.79 453.711H1768.16V554.516H1809.84C1831.29 554.516 1847.04 550.143 1857.1 541.398C1867.28 532.654 1872.38 519.776 1872.38 502.766C1872.38 484.917 1866.98 472.279 1856.2 464.852C1845.54 457.424 1829.07 453.711 1806.79 453.711Z" fill="black"/>
<path d="M820.938 381V118.297H851.484V353.688H968.102V381H820.938ZM1177.98 381L1145.63 297.625H1040.34L1008.17 381H977.266L1080.05 117.219H1107.54L1209.6 381H1177.98ZM1136.47 270.492L1105.74 187.656C1105.02 185.5 1103.83 181.966 1102.15 177.055C1100.59 172.143 1098.97 167.052 1097.3 161.781C1095.62 156.51 1094.24 152.258 1093.16 149.023C1091.97 153.935 1090.65 158.846 1089.21 163.758C1087.89 168.549 1086.58 173.042 1085.26 177.234C1083.94 181.307 1082.8 184.781 1081.84 187.656L1050.58 270.492H1136.47ZM1246.08 118.297H1320.47C1353.29 118.297 1377.97 123.208 1394.5 133.031C1411.03 142.854 1419.3 159.565 1419.3 183.164C1419.3 193.346 1417.32 202.51 1413.37 210.656C1409.53 218.682 1403.9 225.331 1396.48 230.602C1389.05 235.872 1379.89 239.526 1368.98 241.562V243.359C1380.48 245.156 1390.67 248.451 1399.53 253.242C1408.4 258.034 1415.34 264.742 1420.38 273.367C1425.41 281.992 1427.92 292.953 1427.92 306.25C1427.92 322.422 1424.15 336.078 1416.6 347.219C1409.17 358.359 1398.63 366.805 1384.98 372.555C1371.32 378.185 1355.15 381 1336.46 381H1246.08V118.297ZM1276.62 230.961H1326.94C1349.82 230.961 1365.63 227.188 1374.38 219.641C1383.24 212.094 1387.67 201.073 1387.67 186.578C1387.67 171.604 1382.4 160.823 1371.86 154.234C1361.44 147.646 1344.79 144.352 1321.91 144.352H1276.62V230.961ZM1276.62 256.656V354.945H1331.25C1354.61 354.945 1371.14 350.393 1380.84 341.289C1390.55 332.065 1395.4 319.667 1395.4 304.094C1395.4 294.151 1393.18 285.646 1388.75 278.578C1384.44 271.51 1377.37 266.12 1367.55 262.406C1357.84 258.573 1344.85 256.656 1328.55 256.656H1276.62ZM1476.44 381V118.297H1547.77V381H1476.44ZM1674.63 381H1604.73V118.297H1759.98V175.258H1674.63V225.391H1753.34V282.352H1674.63V381Z" fill="black"/>
</svg>
